<svg xmlns="http://www.w3.org/2000/svg" version="1.1" xmlns:xlink="http://www.w3.org/1999/xlink" viewBox="0 0 200 200"><rect width="200" height="200" fill="url('#gradient')"></rect><defs><linearGradient id="gradient" gradientTransform="rotate(45 0.5 0.5)"><stop offset="0%" stop-color="#ff0000"></stop><stop offset="100%" stop-color="#ff0000"></stop></linearGradient></defs><g><g fill="#ffffff" transform="matrix(5.474309474309474,0,0,5.474309474309474,4.117822250733582,138.92171595972513)" stroke="#c8512e" stroke-width="0"><path d="M1.07-14.22L5.58-14.22L8.75-4.33L11.91-14.22L16.43-14.22L16.43 0L12.99 0L12.99-3.32L13.32-10.12L9.88 0L7.62 0L4.17-10.13L4.50-3.32L4.50 0L1.07 0L1.07-14.22ZM18.60-14.22L23.11-14.22L26.28-4.33L29.44-14.22L33.96-14.22L33.96 0L30.52 0L30.52-3.32L30.85-10.12L27.41 0L25.15 0L21.70-10.13L22.03-3.32L22.03 0L18.60 0L18.60-14.22Z"></path></g></g></svg>